<mxfile host="app.diagrams.net" agent="Mozilla/5.0 (Macintosh; Intel Mac OS X 10_15_7) AppleWebKit/605.1.15 (KHTML, like Gecko) Version/17.5 Safari/605.1.15" version="24.8.4">
  <diagram name="Page-1" id="e7e014a7-5840-1c2e-5031-d8a46d1fe8dd">
    <mxGraphModel dx="1242" dy="827" grid="1" gridSize="10" guides="1" tooltips="1" connect="1" arrows="1" fold="1" page="1" pageScale="1" pageWidth="1169" pageHeight="826" background="none" math="0" shadow="0">
      <root>
        <mxCell id="0" />
        <mxCell id="1" parent="0" />
        <mxCell id="dBf95pcwiir-MxDVO1sl-41" value="&lt;div&gt;Command-line interface&lt;/div&gt;&lt;div&gt;for the sentiment analyzer&lt;/div&gt;" style="rounded=0;whiteSpace=wrap;html=1;" vertex="1" parent="1">
          <mxGeometry x="40" y="340" width="120" height="60" as="geometry" />
        </mxCell>
        <mxCell id="dBf95pcwiir-MxDVO1sl-42" value="MAIN" style="swimlane;fontStyle=0;childLayout=stackLayout;horizontal=1;startSize=30;horizontalStack=0;resizeParent=1;resizeParentMax=0;resizeLast=0;collapsible=1;marginBottom=0;whiteSpace=wrap;html=1;" vertex="1" parent="1">
          <mxGeometry x="240" y="310" width="140" height="130" as="geometry" />
        </mxCell>
        <mxCell id="dBf95pcwiir-MxDVO1sl-43" value="&lt;div&gt;+main (int arg, char** argv)&lt;/div&gt;&lt;div&gt;: int&lt;/div&gt;" style="text;strokeColor=none;fillColor=none;align=left;verticalAlign=middle;spacingLeft=4;spacingRight=4;overflow=hidden;points=[[0,0.5],[1,0.5]];portConstraint=eastwest;rotatable=0;whiteSpace=wrap;html=1;" vertex="1" parent="dBf95pcwiir-MxDVO1sl-42">
          <mxGeometry y="30" width="140" height="100" as="geometry" />
        </mxCell>
        <mxCell id="dBf95pcwiir-MxDVO1sl-48" value="" style="endArrow=none;dashed=1;html=1;dashPattern=1 3;strokeWidth=2;rounded=0;exitX=1;exitY=0.5;exitDx=0;exitDy=0;entryX=-0.029;entryY=0.3;entryDx=0;entryDy=0;entryPerimeter=0;" edge="1" parent="1" source="dBf95pcwiir-MxDVO1sl-41" target="dBf95pcwiir-MxDVO1sl-43">
          <mxGeometry width="50" height="50" relative="1" as="geometry">
            <mxPoint x="560" y="450" as="sourcePoint" />
            <mxPoint x="610" y="400" as="targetPoint" />
          </mxGeometry>
        </mxCell>
        <mxCell id="dBf95pcwiir-MxDVO1sl-49" value="Classifier" style="swimlane;fontStyle=0;childLayout=stackLayout;horizontal=1;startSize=30;horizontalStack=0;resizeParent=1;resizeParentMax=0;resizeLast=0;collapsible=1;marginBottom=0;whiteSpace=wrap;html=1;" vertex="1" parent="1">
          <mxGeometry x="510" y="130" width="310" height="370" as="geometry" />
        </mxCell>
        <mxCell id="dBf95pcwiir-MxDVO1sl-50" value="&lt;ul style=&quot;list-style-type: &#39;—&amp;nbsp;&amp;nbsp;&#39;&quot;&gt;&lt;br/&gt;&lt;li style=&quot;margin: 0px; font-style: normal; font-variant-caps: normal; font-stretch: normal; line-height: normal; font-size-adjust: none; font-kerning: auto; font-variant-alternates: normal; font-variant-ligatures: normal; font-variant-numeric: normal; font-variant-east-asian: normal; font-variant-position: normal; font-variant-emoji: normal; font-feature-settings: normal; font-optical-sizing: auto; font-variation-settings: normal;&quot;&gt;﻿unordered_map&amp;lt;DSString, int&amp;gt; positiveWordCounts&lt;/li&gt;&lt;br/&gt;&lt;li style=&quot;margin: 0px; font-style: normal; font-variant-caps: normal; font-stretch: normal; line-height: normal; font-size-adjust: none; font-kerning: auto; font-variant-alternates: normal; font-variant-ligatures: normal; font-variant-numeric: normal; font-variant-east-asian: normal; font-variant-position: normal; font-variant-emoji: normal; font-feature-settings: normal; font-optical-sizing: auto; font-variation-settings: normal;&quot;&gt;﻿unordered_map&amp;lt;DSString, int&amp;gt; negativeWordCounts&lt;/li&gt;&lt;br/&gt;&lt;li style=&quot;margin: 0px; font-style: normal; font-variant-caps: normal; font-stretch: normal; line-height: normal; font-size-adjust: none; font-kerning: auto; font-variant-alternates: normal; font-variant-ligatures: normal; font-variant-numeric: normal; font-variant-east-asian: normal; font-variant-position: normal; font-variant-emoji: normal; font-feature-settings: normal; font-optical-sizing: auto; font-variation-settings: normal;&quot;&gt;﻿int totalPositiveTweets&lt;/li&gt;&lt;br/&gt;&lt;li style=&quot;margin: 0px; font-style: normal; font-variant-caps: normal; font-stretch: normal; line-height: normal; font-size-adjust: none; font-kerning: auto; font-variant-alternates: normal; font-variant-ligatures: normal; font-variant-numeric: normal; font-variant-east-asian: normal; font-variant-position: normal; font-variant-emoji: normal; font-feature-settings: normal; font-optical-sizing: auto; font-variation-settings: normal;&quot;&gt;﻿int totalNegativeTweets&lt;/li&gt;&lt;/ul&gt;" style="text;strokeColor=none;fillColor=none;align=left;verticalAlign=middle;spacingLeft=4;spacingRight=4;overflow=hidden;points=[[0,0.5],[1,0.5]];portConstraint=eastwest;rotatable=0;whiteSpace=wrap;html=1;" vertex="1" parent="dBf95pcwiir-MxDVO1sl-49">
          <mxGeometry y="30" width="310" height="30" as="geometry" />
        </mxCell>
        <mxCell id="dBf95pcwiir-MxDVO1sl-51" value="&lt;ul style=&quot;list-style-type: &#39;—&amp;nbsp;&amp;nbsp;&#39;&quot;&gt;&lt;br/&gt;&lt;li style=&quot;margin: 0px; font-style: normal; font-variant-caps: normal; font-stretch: normal; line-height: normal; font-size-adjust: none; font-kerning: auto; font-variant-alternates: normal; font-variant-ligatures: normal; font-variant-numeric: normal; font-variant-east-asian: normal; font-variant-position: normal; font-variant-emoji: normal; font-feature-settings: normal; font-optical-sizing: auto; font-variation-settings: normal;&quot;&gt;﻿unordered_map&amp;lt;DSString, int&amp;gt; positiveWordCounts&lt;/li&gt;&lt;br/&gt;&lt;li style=&quot;margin: 0px; font-style: normal; font-variant-caps: normal; font-stretch: normal; line-height: normal; font-size-adjust: none; font-kerning: auto; font-variant-alternates: normal; font-variant-ligatures: normal; font-variant-numeric: normal; font-variant-east-asian: normal; font-variant-position: normal; font-variant-emoji: normal; font-feature-settings: normal; font-optical-sizing: auto; font-variation-settings: normal;&quot;&gt;﻿unordered_map&amp;lt;DSString, int&amp;gt; negativeWordCounts&lt;/li&gt;&lt;br/&gt;&lt;li style=&quot;margin: 0px; font-style: normal; font-variant-caps: normal; font-stretch: normal; line-height: normal; font-size-adjust: none; font-kerning: auto; font-variant-alternates: normal; font-variant-ligatures: normal; font-variant-numeric: normal; font-variant-east-asian: normal; font-variant-position: normal; font-variant-emoji: normal; font-feature-settings: normal; font-optical-sizing: auto; font-variation-settings: normal;&quot;&gt;﻿int totalPositiveTweets&lt;/li&gt;&lt;br/&gt;&lt;li style=&quot;margin: 0px; font-style: normal; font-variant-caps: normal; font-stretch: normal; line-height: normal; font-size-adjust: none; font-kerning: auto; font-variant-alternates: normal; font-variant-ligatures: normal; font-variant-numeric: normal; font-variant-east-asian: normal; font-variant-position: normal; font-variant-emoji: normal; font-feature-settings: normal; font-optical-sizing: auto; font-variation-settings: normal;&quot;&gt;﻿int totalNegativeTweets&lt;/li&gt;&lt;/ul&gt;" style="text;strokeColor=none;fillColor=none;align=left;verticalAlign=middle;spacingLeft=4;spacingRight=4;overflow=hidden;points=[[0,0.5],[1,0.5]];portConstraint=eastwest;rotatable=0;whiteSpace=wrap;html=1;" vertex="1" parent="dBf95pcwiir-MxDVO1sl-49">
          <mxGeometry y="60" width="310" height="160" as="geometry" />
        </mxCell>
        <mxCell id="dBf95pcwiir-MxDVO1sl-52" value="&lt;div&gt;+train(const char*) : void&lt;/div&gt;&lt;div&gt;+predict(const char*, const char*) : void&lt;/div&gt;&lt;div&gt;+evaluatePredictions(const char*, const char*, const char*) : void&lt;/div&gt;" style="text;strokeColor=none;fillColor=none;align=left;verticalAlign=middle;spacingLeft=4;spacingRight=4;overflow=hidden;points=[[0,0.5],[1,0.5]];portConstraint=eastwest;rotatable=0;whiteSpace=wrap;html=1;" vertex="1" parent="dBf95pcwiir-MxDVO1sl-49">
          <mxGeometry y="220" width="310" height="150" as="geometry" />
        </mxCell>
        <mxCell id="dBf95pcwiir-MxDVO1sl-55" value="" style="endArrow=none;dashed=1;html=1;rounded=0;exitX=1;exitY=0.5;exitDx=0;exitDy=0;entryX=-0.006;entryY=0.24;entryDx=0;entryDy=0;entryPerimeter=0;" edge="1" parent="1" source="dBf95pcwiir-MxDVO1sl-43" target="dBf95pcwiir-MxDVO1sl-52">
          <mxGeometry width="50" height="50" relative="1" as="geometry">
            <mxPoint x="560" y="450" as="sourcePoint" />
            <mxPoint x="610" y="400" as="targetPoint" />
          </mxGeometry>
        </mxCell>
        <mxCell id="dBf95pcwiir-MxDVO1sl-56" value="DSString" style="swimlane;fontStyle=0;childLayout=stackLayout;horizontal=1;startSize=30;horizontalStack=0;resizeParent=1;resizeParentMax=0;resizeLast=0;collapsible=1;marginBottom=0;whiteSpace=wrap;html=1;" vertex="1" parent="1">
          <mxGeometry x="930" y="270" width="140" height="430" as="geometry" />
        </mxCell>
        <mxCell id="dBf95pcwiir-MxDVO1sl-57" value="&lt;ul style=&quot;list-style-type: &#39;—&amp;nbsp;&amp;nbsp;&#39;&quot;&gt;&lt;br/&gt;&lt;li style=&quot;margin: 0px; font-style: normal; font-variant-caps: normal; font-stretch: normal; line-height: normal; font-size-adjust: none; font-kerning: auto; font-variant-alternates: normal; font-variant-ligatures: normal; font-variant-numeric: normal; font-variant-east-asian: normal; font-variant-position: normal; font-variant-emoji: normal; font-feature-settings: normal; font-optical-sizing: auto; font-variation-settings: normal;&quot;&gt;﻿char* datal&lt;/li&gt;&lt;br/&gt;&lt;li style=&quot;margin: 0px; font-style: normal; font-variant-caps: normal; font-stretch: normal; line-height: normal; font-size-adjust: none; font-kerning: auto; font-variant-alternates: normal; font-variant-ligatures: normal; font-variant-numeric: normal; font-variant-east-asian: normal; font-variant-position: normal; font-variant-emoji: normal; font-feature-settings: normal; font-optical-sizing: auto; font-variation-settings: normal;&quot;&gt;﻿size_t len&lt;/li&gt;&lt;/ul&gt;" style="text;strokeColor=none;fillColor=none;align=left;verticalAlign=middle;spacingLeft=4;spacingRight=4;overflow=hidden;points=[[0,0.5],[1,0.5]];portConstraint=eastwest;rotatable=0;whiteSpace=wrap;html=1;" vertex="1" parent="dBf95pcwiir-MxDVO1sl-56">
          <mxGeometry y="30" width="140" height="80" as="geometry" />
        </mxCell>
        <mxCell id="dBf95pcwiir-MxDVO1sl-58" value="&lt;div&gt;+DSString()&lt;/div&gt;&lt;div&gt;+DSString(const char* str)&lt;/div&gt;&lt;div&gt;+DSString(const DSString&amp;amp; other)&lt;/div&gt;&lt;div&gt;+~DSString () +operator=(const DSString&amp;amp;) : DSString&amp;amp;&lt;/div&gt;&lt;div&gt;+length() : size_t +operatorl] (size_t) : char&amp;amp; +operatorI] (size_t) : const char&amp;amp; +operator+(const DSString&amp;amp;) : DSString +operator==(const DSString&amp;amp;) : bool operator&amp;lt;(const DSString&amp;amp;) : bool +substring (size_t, size_t) : DSString&lt;/div&gt;&lt;div&gt;+toLower() : DSString&lt;/div&gt;&lt;div&gt;+C_str() : const char&lt;/div&gt;" style="text;strokeColor=none;fillColor=none;align=left;verticalAlign=middle;spacingLeft=4;spacingRight=4;overflow=hidden;points=[[0,0.5],[1,0.5]];portConstraint=eastwest;rotatable=0;whiteSpace=wrap;html=1;" vertex="1" parent="dBf95pcwiir-MxDVO1sl-56">
          <mxGeometry y="110" width="140" height="320" as="geometry" />
        </mxCell>
        <mxCell id="dBf95pcwiir-MxDVO1sl-61" value="" style="endArrow=none;dashed=1;html=1;rounded=0;entryX=1.006;entryY=0.453;entryDx=0;entryDy=0;entryPerimeter=0;exitX=-0.014;exitY=0.128;exitDx=0;exitDy=0;exitPerimeter=0;" edge="1" parent="1" source="dBf95pcwiir-MxDVO1sl-58" target="dBf95pcwiir-MxDVO1sl-52">
          <mxGeometry width="50" height="50" relative="1" as="geometry">
            <mxPoint x="860" y="600" as="sourcePoint" />
            <mxPoint x="850" y="390" as="targetPoint" />
          </mxGeometry>
        </mxCell>
      </root>
    </mxGraphModel>
  </diagram>
</mxfile>
